# xmcd CD database file
#
# Track frame offsets:
#	150
#	30108
#	54639
#	80812
#	108492
#	141280
#	184487
#	215743
#
# Disc length: 3293 seconds
#
# Revision: 0
# Processed by: cddbd v1.5.2PL0 Copyright (c) Steve Scherf et al.
# Submitted via: CDex 1.51
#
DISCID=750cdb08
DTITLE=Warren Wolf - Black Wolf
DYEAR=2009
DGENRE=Jazz
TTITLE0=From Day To Day
TTITLE1=Maiden Voyage
TTITLE2=The Wire
TTITLE3=Chelsea Bridge
TTITLE4=Bag's Groove
TTITLE5=Who's Afraid Of The Big Black Wlof
TTITLE6=Speed Ball
TTITLE7=Katrina
EXTD=YEAR: 2009
EXTT0=
EXTT1=
EXTT2=
EXTT3=
EXTT4=
EXTT5=
EXTT6=
EXTT7=
PLAYORDER=
